<svg xmlns="http://www.w3.org/2000/svg" enable-background="new 0 0 512 512" viewBox="0 0 512 512" id="construction-plan"><path d="M459,28.2h-19.8c-5.7,0-10.4,4.7-10.4,10.4v74.6H83.2V38.6c0-5.7-4.7-10.4-10.4-10.4H52.9C23.7,28.2,0,51.9,0,81.1v349.7c0,25.4,22.6,53,54,53h403.9c31.4,0,54.1-27.2,54.1-53V81.1C512,51.9,488.2,28.2,459,28.2z M20.9,81.1c0-17.7,14.4-32.1,32-32.1h9.4v328.8h-9.4c-12,0-23.1,4.1-32,10.9C20.9,388.8,20.9,81.1,20.9,81.1z M490,430.9c0,17.8-14.5,32.1-32.1,32.1H54c-17.9,0-32.1-14.5-32.1-32.1V423c3.4-13.8,16-24.2,31-24.2h19.8c5.7,0,10.4-4.6,10.4-10.4V134.1h345.6v254.2c0,5.8,4.7,10.4,10.4,10.4H459c14.9,0,27.4,10.2,31,24V430.9L490,430.9z M491.1,388.8c-8.9-6.8-20.1-10.9-32.1-10.9h-9.4V49.1h9.4c17.7,0,32.1,14.4,32.1,32.1V388.8z"></path><path d="M371.7,188.4H140.3c-16.2,0-29.4,13.2-29.4,29.4v161.5c0,16.2,13.2,29.4,29.4,29.4h21.9c5.8,0,10.4-4.7,10.4-10.4c0-5.8-4.7-10.4-10.4-10.4h-21.9c-4.7,0-8.5-3.8-8.5-8.5V270.5h24c5.8,0,10.4-4.7,10.4-10.4c0-5.8-4.7-10.4-10.4-10.4h-24v-31.8c0-4.7,3.8-8.5,8.5-8.5h117.5v40.3h-55.4c-5.8,0-10.4,4.7-10.4,10.4s4.7,10.4,10.4,10.4h65.9c5.8,0,10.4-4.7,10.4-10.4v-50.8h93c4.7,0,8.5,3.8,8.5,8.5v78.5h-112c-5.8,0-10.4,4.7-10.4,10.4s4.7,10.4,10.4,10.4h112v62.1c0,4.7-3.8,8.5-8.5,8.5h-93v-19.6c0-5.8-4.7-10.4-10.4-10.4c-5.8,0-10.4,4.7-10.4,10.4v19.6h-24.9l-14.5-30.3c-2.5-5.2-8.7-7.4-13.9-4.9c-5.2,2.5-7.4,8.7-4.9,13.9l17.3,36.3c1.7,3.6,5.4,5.9,9.4,5.9h145.4c16.2,0,29.4-13.2,29.4-29.4V217.8C401.1,201.6,387.9,188.4,371.7,188.4z"></path></svg>