<svg xmlns="http://www.w3.org/2000/svg" viewBox="0 0 64 64" id="build"><path d="M31.00291 17c0-2.20557-1.79443-4-4-4h-2c-2.20557 0-4 1.79443-4 4v3c0 2.20557 1.79443 4 4 4h2c2.20557 0 4-1.79443 4-4v-3zm-2 3c0 1.10303-.89697 2-2 2h-2c-1.10303 0-2-.89697-2-2v-3c0-1.10303.89697-2 2-2h2c1.10303 0 2 .89697 2 2v3zM37.00291 24h2c2.20557 0 4-1.79443 4-4v-3c0-2.20557-1.79443-4-4-4h-2c-2.20557 0-4 1.79443-4 4v3c0 2.20557 1.79443 4 4 4zm-2-7c0-1.10303.89697-2 2-2h2c1.10303 0 2 .89697 2 2v3c0 1.10303-.89697 2-2 2h-2c-1.10303 0-2-.89697-2-2v-3zM19.00291 17c0-2.20557-1.79443-4-4-4h-2c-2.20557 0-4 1.79443-4 4v3c0 2.20557 1.79443 4 4 4h2c2.20557 0 4-1.79443 4-4v-3zm-2 3c0 1.10303-.89697 2-2 2h-2c-1.10303 0-2-.89697-2-2v-3c0-1.10303.89697-2 2-2h2c1.10303 0 2 .89697 2 2v3zM27.00291 26h-2c-2.20557 0-4 1.79443-4 4v3c0 2.20557 1.79443 4 4 4h2c2.20557 0 4-1.79443 4-4v-3c0-2.20557-1.79443-4-4-4zm2 7c0 1.10303-.89697 2-2 2h-2c-1.10303 0-2-.89697-2-2v-3c0-1.10303.89697-2 2-2h2c1.10303 0 2 .89697 2 2v3zM33.00291 33c0 2.20557 1.79443 4 4 4h2c2.20557 0 4-1.79443 4-4v-3c0-2.20557-1.79443-4-4-4h-2c-2.20557 0-4 1.79443-4 4v3zm2-3c0-1.10303.89697-2 2-2h2c1.10303 0 2 .89697 2 2v3c0 1.10303-.89697 2-2 2h-2c-1.10303 0-2-.89697-2-2v-3zM15.00291 26h-2c-2.20557 0-4 1.79443-4 4v3c0 2.20557 1.79443 4 4 4h2c2.20557 0 4-1.79443 4-4v-3c0-2.20557-1.79443-4-4-4zm2 7c0 1.10303-.89697 2-2 2h-2c-1.10303 0-2-.89697-2-2v-3c0-1.10303.89697-2 2-2h2c1.10303 0 2 .89697 2 2v3z"></path><path d="m5.00303,61c-.00012,0,53.99988,0,53.99988,0,4.05975-.10864,3.89087-6.12061-.18427-6,.23853-.53827.17987-1.41382.18427-2,0-1.6543-1.3457-3-3-3h-2.18427c.42169-1.45923.30823-3.51178-1.06128-4.42242l3.05853-1.70551c.91455-.51074,1.48877-1.43994,1.53564-2.48633.04688-1.0459-.44141-2.02295-1.30664-2.61279l-2.28387-1.55719,1.49213-2.18854c1.19867.34045,2.5545-.16895,3.24292-1.20593l2.81641-4.13086c.93604-1.31354.56274-3.2879-.78809-4.16895-1.3667-.93164-3.23633-.57715-4.16895.78857l-2.81689,4.13135c-.71674,1.01819-.68805,2.46906.06494,3.4549l-1.495,2.19275-2.28333-1.55682c-1.74664-1.27454-4.44141-.07642-4.66302,2.07574-.00006-.00006-1.13092,8.33978-1.13092,8.33978-.01056.07788-.01074.15497-.01526.23242-1.99493.64453-2.36121,3.02789-1.82874,4.81982h-2.18433c-1.6543,0-3,1.3457-3,3,.0058.58746-.0545,1.45905.18433,2h-4.74078c.34454-.59076.55646-1.26825.55646-2v-10c0-2.20557-1.79443-4-4-4h-6c-2.20557,0-4,1.79443-4,4v10c0,.73175.21191,1.40924.55646,2H7.00291v-2h6c2.20557,0,4-1.79443,4-4v-6c0-2.20557-1.79443-4-4-4h-6V15c0-2.20557,1.79443-4,4-4h30c2.20557,0,4,1.79443,4,4v17.5c.01434,1.30377,1.98016,1.32147,2-.00006,0,.00006,0-17.49994,0-17.49994,0-3.30859-2.69141-6-6-6h-2v-2c0-2.20557-1.79443-4-4-4h-18c-2.20557,0-4,1.79443-4,4v2h-2c-3.30859,0-6,2.69141-6,6v40c-3.93921.09747-3.96936,5.8938.00012,6Zm50.18787-29.43164l2.81689-4.13135c.7406-1.07556,2.38428.04108,1.65234,1.12653,0-.00006-2.81641,4.1308-2.81641,4.1308-.73877,1.07794-2.38629-.04266-1.65283-1.12598ZM15.00291,7c0-1.10303.89697-2,2-2h18c1.10303,0,2,.89697,2,2v2H15.00291v-2ZM7.00291,41h3v7c0,.55225.44775,1,1,1s1-.44775,1-1v-7h1c1.10303,0,2,.89697,2,2v6c0,1.10303-.89697,2-2,2h-6v-10Zm49,11c.55127,0,1,.44873,1,1v1c0,.55127-.44873,1-1,1h-6c-.55127,0-1-.44873-1-1v-1c0-.55127.44873-1,1-1h6Zm-9.99017-6.78375c-.00006.00006,1.1308-8.33978,1.1308-8.33978.17114-.84161.94983-1.06824,1.55469-.69189l6.21973,4.24072c.41553.28369.44336.70361.43555.87109-.00732.16748-.07227.5835-.51172.82861l-7.35059,4.09912c-.6839.41559-1.61603-.21869-1.47845-1.00787Zm-2.00983,2.78375c0-.39691.237-.73407.573-.89545.85077,1.22418,2.59906,1.61554,3.88892.86658,0,.00006,1.74164-.97113,1.74164-.97113h.79645c.55127,0,1,.44873,1,1v1c0,.55127-.44873,1-1,1h-6c-.55127,0-1-.44873-1-1v-1Zm-5,5c0-.55127.44873-1,1-1h6c.55127,0,1,.44873,1,1v1c0,.55127-.44873,1-1,1h-6c-.55127,0-1-.44873-1-1v-1Zm-18-10c0-1.10303.89697-2,2-2h6c1.10303,0,2,.89697,2,2v10c0,1.10303-.89697,2-2,2h-6c-1.10303,0-2-.89697-2-2v-10Zm-15.99994,14c-.00006,0,53.99994,0,53.99994,0,1.29321.0177,1.33093,1.97479,0,2H5.00291c-1.29321-.0177-1.33087-1.97479.00006-2Z"></path><path d="m41.00291,46.02002c.55225,0,1-.44775,1-1v-4.02002h.68018c1.31085-.01935,1.31659-1.97882,0-2h-3.68018c-2.20557,0-4,1.79443-4,4v6c-.05011.89471.37256,2.13397,1.4566,1.78461.52191-.18011.79877-.74945.61859-1.27142-.14691.13342-.04883-6.38611-.0752-6.51318,0-1.10303.89697-2,2-2h1v4.02002c0,.55225.44775,1,1,1Z"></path></svg>