<svg xmlns="http://www.w3.org/2000/svg" viewBox="0 0 100 100" id="plug"><path d="M95.7 46.3c-.2-.2-.4-.3-.7-.3H80.2c-1.5-3.5-5.1-6-9.2-6h-2v-1c0-.6-.4-1-1-1h-3c-.6 0-1 .4-1 1v2h-9c-.6 0-1 .4-1 1v4c0 .6.4 1 1 1h9v6h-9c-.6 0-1 .4-1 1v4c0 .6.4 1 1 1h9v2c0 .6.4 1 1 1h3c.6 0 1-.4 1-1v-1h2c4.1 0 7.6-2.5 9.2-6H95c.6 0 1-.4 1-1v-6c0-.3-.1-.5-.3-.7zM28 33c-9.4 0-17 7.6-17 17s7.6 17 17 17 17-7.6 17-17-7.6-17-17-17zm-4 22c0 .6-.4 1-1 1h-6c-.6 0-1-.4-1-1V45c0-.6.4-1 1-1h6c.6 0 1 .4 1 1v10zm16 0c0 .6-.4 1-1 1h-6c-.6 0-1-.4-1-1V45c0-.6.4-1 1-1h6c.6 0 1 .4 1 1v10z"></path><path d="M51 26H5c-.6 0-1 .4-1 1v46c0 .6.4 1 1 1h46c.6 0 1-.4 1-1V27c0-.6-.4-1-1-1zM28 69C17.5 69 9 60.5 9 50s8.5-19 19-19 19 8.5 19 19-8.5 19-19 19z"></path></svg>