<svg xmlns="http://www.w3.org/2000/svg" viewBox="0 0 512 512" id="paint-roller"><path d="M404.931,72.4H379.837v20h25.094a59.349,59.349,0,0,1,0,118.7H241.279a40.045,40.045,0,0,0-40,40v29.349h20V251.094a20.023,20.023,0,0,1,20-20H404.93a79.349,79.349,0,0,0,0-158.7Z"></path><path d="M369.884 116.791V48a20.023 20.023 0 0 0-20-20H47.721a20.023 20.023 0 0 0-20 20v68.791a20.023 20.023 0 0 0 20 20H349.884A20.023 20.023 0 0 0 369.884 116.791zM166.7 454a30.034 30.034 0 0 0 30 30h24.21a30.034 30.034 0 0 0 30-30V290.535H166.7V454z"></path></svg>