<svg xmlns="http://www.w3.org/2000/svg" enable-background="new 0 0 64 64" viewBox="0 0 64 64" id="renovation"><path fill="#010101" d="M61.9,62.6L58,53.4c-0.1-0.2-0.3-0.3-0.4-0.3c-0.1,0-0.1,0-0.2,0l-2,0.8c-0.1,0.1-0.2,0.1-0.2,0.2
		c0,0.1-0.1,0.2,0,0.3l3.9,9.2c0.1,0.2,0.3,0.3,0.5,0.2l2-0.8C61.9,63,62,62.8,61.9,62.6z M54.7,52l-0.6-1.4
		c-0.5-1.3-1.5-2.2-2.8-2.7s-2.6-0.5-3.9,0L37,52.3c-1.7,0.7-3.5,0.7-5.2,0s-3-2-3.7-3.7s-0.7-3.5,0-5.2s2-3,3.7-3.7l0.9-0.4
		L32.2,38c-0.4-1-0.4-2.1,0-3.1c0.4-1,1.2-1.8,2.2-2.2l19.2-8l-2.8-2.8c0,0,0-0.1-0.1-0.1l-21-20.9c-1.2-1.2-3.4-1.2-4.6,0L1.4,24.6
		v31.7h6.9V37.4c0-3,2.4-5.4,5.4-5.4h12c1.5,0,2.9,0.6,3.9,1.7c0.4,0.4,0.4,1.1,0,1.5s-1.1,0.4-1.5,0c-0.6-0.6-1.4-1-2.3-1h-12
		c-1.8,0-3.2,1.4-3.2,3.2v18.9H29V55c0-0.6,0.5-1.1,1.1-1.1s1.1,0.5,1.1,1.1v1.3h22.6l-0.4-0.9c-0.3-0.6-0.3-1.3,0-2
		C53.5,52.8,54,52.3,54.7,52z M22.7,27.3c-1.8,0-3.3-1.5-3.3-3.3v-9.3c0-1.8,1.5-3.3,3.3-3.3H32c1.8,0,3.3,1.5,3.3,3.3V24
		c0,1.8-1.5,3.3-3.3,3.3H22.7z M33.1,24.1v-9.3c0-0.6-0.5-1.1-1.1-1.1h-9.3c-0.6,0-1.1,0.5-1.1,1.1v9.3c0,0.6,0.5,1.1,1.1,1.1H32
		C32.6,25.2,33.1,24.7,33.1,24.1z M48.1,0.5h-3.9c-1.2,0-2.3,1-2.3,2.3V10l8.4,8.4V2.8C50.3,1.6,49.3,0.5,48.1,0.5z M62.5,30.7
		l-1.9-4.6c-0.3-0.7-1-1.2-1.8-1.2c-0.3,0-0.5,0-0.7,0.1l-23,9.6c-0.5,0.2-0.8,0.6-1,1c-0.2,0.5-0.2,1,0,1.4l1,2.3l0.9,2.3
		c0.4,0.9,1.5,1.4,2.5,1l23-9.6C62.4,32.8,62.9,31.7,62.5,30.7z M39.3,44.8c-0.5,0.2-1,0.3-1.6,0.3c-1.6,0-3.1-1-3.8-2.5l-0.5-1.3
		l-0.9,0.4c-1.1,0.5-2,1.4-2.5,2.5c-0.5,1.2-0.5,2.4,0,3.6c0.5,1.1,1.4,2,2.5,2.5c1.2,0.5,2.4,0.5,3.5,0l10.5-4.4
		c1.8-0.8,3.8-0.8,5.6,0c0.4,0.2,0.9,0.4,1.3,0.7V39L39.3,44.8z"></path><path fill="#010101" d="M13.2,43c-0.6,0-1.1,0.5-1.1,1.1v2.1c0,0.6,0.5,1.1,1.1,1.1s1.1-0.5,1.1-1.1V44C14.3,43.4,13.8,43,13.2,43z
		"></path></svg>