<svg xmlns="http://www.w3.org/2000/svg" viewBox="0 0 512 512" id="home-renovation"><path d="M504.5 432a7.5 7.5 0 0 0 6.71-10.85l-14.47-28.95a27.37 27.37 0 0 0-24.6-15.2h-45.28a27.37 27.37 0 0 0-24.6 15.2l-12.4 24.8H122.14l-12.4-24.8a27.35 27.35 0 0 0-24.6-15.2H39.86a27.37 27.37 0 0 0-24.6 15.2L.79 421.15A7.5 7.5 0 0 0 7.5 432h60.64l6.25 12.5-6.25 12.5H7.5a7.5 7.5 0 0 0-6.71 10.85l14.47 28.95a27.37 27.37 0 0 0 24.6 15.2h45.28a27.35 27.35 0 0 0 24.6-15.2l12.4-24.8h267.72l12.4 24.8a27.35 27.35 0 0 0 24.6 15.2h45.28a27.35 27.35 0 0 0 24.6-15.2l14.47-28.95A7.5 7.5 0 0 0 504.5 457h-60.64l-6.25-12.5 6.25-12.5zm-386-166a7.5 7.5 0 0 0 7.5 7.5h260a7.5 7.5 0 0 0 7.5-7.5v-22.5h-275zm-81 29H60V0H37.5A37.54 37.54 0 0 0 0 37.5v295A37.54 37.54 0 0 1 37.5 295z"></path><path d="M504.5 40H351.74l46.05 28.34A22.62 22.62 0 0 1 408.5 87.5v40a22.49 22.49 0 0 1-20 22.36v63.78a22.54 22.54 0 0 1 20 22.36v30a22.52 22.52 0 0 1-22.5 22.5H126a22.52 22.52 0 0 1-22.5-22.5v-30a22.54 22.54 0 0 1 20-22.36v-63.78a22.51 22.51 0 0 1-20-22.36v-40a22.62 22.62 0 0 1 10.71-19.16L160.26 40H75v262.5a7.5 7.5 0 0 1-7.5 7.5h-30a22.5 22.5 0 0 0 0 45h467a7.5 7.5 0 0 0 7.5-7.5v-300a7.5 7.5 0 0 0-7.5-7.5Z"></path><path d="M223.5 169.25h25v25h-25zM263.5 129.25h25v25h-25zM223.5 129.25h25v25h-25zM263.5 169.25h25v25h-25z"></path><path d="M138.5 128.61v99.89h235v-99.89L256 56.31Zm165-6.86v80a7.5 7.5 0 0 1-7.5 7.5h-80a7.5 7.5 0 0 1-7.5-7.5v-80a7.5 7.5 0 0 1 7.5-7.5h80a7.5 7.5 0 0 1 7.5 7.5Z"></path><path d="M118.5 87.5v35.81l133.57-82.2a7.51 7.51 0 0 1 7.86 0l133.57 82.2V87.5a7.51 7.51 0 0 0-3.57-6.39l-130-80a7.51 7.51 0 0 0-7.86 0l-130 80a7.51 7.51 0 0 0-3.57 6.39Z"></path></svg>