<svg xmlns="http://www.w3.org/2000/svg" viewBox="0 0 96 96" id="roof"><path d="m81.767,31.164v2c0,.552-.448,1-1,1h-11c-.552,0-1-.448-1-1v-2c0-1.103.897-2,2-2h9c1.103,0,2,.897,2,2Zm-11.352,4l10.352,13.672v-13.672h-10.352Zm20.585,31.836h-4.611c-.313,0-.609-.147-.798-.397l-21.09-27.943-21.09,27.943c-.189.25-.485.397-.798.397H5c-.379,0-.727-.215-.896-.555s-.131-.746.098-1.049L30.703,30.396c.189-.25.484-.396.797-.396,0,0,33,0,33,0,.335-.007.589.18.797.396l26.5,35c.505.623.002,1.629-.797,1.604Zm-2.011-2l-24.489-32.343-24.489,32.343h2.102l21.588-28.603c.378-.501,1.219-.501,1.597,0l21.588,28.603h2.102Zm-18.689-7c-.286,9.27-11.312,9.271-11.6,0,0-3.86,2.602-7,5.8-7s5.8,3.14,5.8,7Zm-4.8-4.802v3.802h2.723c-.286-1.847-1.354-3.307-2.723-3.802Zm-4.723,3.802h2.723v-3.802c-1.369.495-2.437,1.955-2.723,3.802Zm2.723,5.802v-3.802h-2.723c.286,1.847,1.354,3.307,2.723,3.802Zm4.723-3.802h-2.723v3.802c1.369-.495,2.437-1.955,2.723-3.802Z"></path></svg>